<svg viewBox="0 0 128 128" xmlns="http://www.w3.org/2000/svg">
    <path fill="#FFFFFF" d="M64 0c17.8 0 34.8 7.6 46.5 19.9 11.7 12.3 18.5 28.8 18.5 46.1 0 17.8-7.6 34.8-19.9 46.5C98.3 124.4 81.8 131.2 64 131.2S29.2 124.4 17.5 112.5C5.8 100.8-1 84.3-1 66.1S7.6 31.2 19.9 19.5C32.2 7.8 48.7.1 66.1.1H64zM43.7 83.5c4.4 6.4 11.8 10.2 19.5 10.2 7.7 0 15.1-3.8 19.5-10.2 4.5-6.4 6.9-14.4 6.9-22.5s-2.4-16.1-6.9-22.5C78.4 34.1 71 30.3 63.2 30.3 55.5 30.3 48 34.1 43.7 40.5c-4.4 6.4-6.9 14.4-6.9 22.5s2.4 16.1 6.9 22.5zM64 8C50.1 8 36.8 12.3 26.6 21.7 16.4 31 10 44.8 10 59.9c0 15.1 6.4 28.9 16.6 38.2C36.8 108.7 50.1 113 64 113s27.2-4.3 37.4-14.6c10.2-10.3 16.6-24.1 16.6-38.2s-6.4-28.9-16.6-38.2C91.2 12.3 77.9 8 64 8z"/>
</svg>
